<?xml version="1.0" standalone="no"?><!DOCTYPE svg PUBLIC "-//W3C//DTD SVG 1.1//EN" "http://www.w3.org/Graphics/SVG/1.1/DTD/svg11.dtd"><svg t="1593765830735" class="icon" viewBox="0 0 1260 1024" version="1.1" xmlns="http://www.w3.org/2000/svg" p-id="1290" xmlns:xlink="http://www.w3.org/1999/xlink" width="246.09375" height="200"><defs><style type="text/css"></style></defs><path d="M1057.037061 562.752533A62.392811 62.392811 0 0 1 995.409806 500.359722a374.356866 374.356866 0 0 0-589.478091-308.136275 62.392811 62.392811 0 0 1-71.196705-101.053387 497.611376 497.611376 0 0 1 784.694862 409.189662 62.392811 62.392811 0 0 1-62.392811 62.392811z m0 0" fill="#d81e06" p-id="1291"></path><path d="M997.706474 692.897046l-120.575064-143.158965a55.120029 55.120029 0 0 1 7.65556-88.038936 55.120029 55.120029 0 0 1 88.038935 7.65556l120.575064 143.924521a55.120029 55.120029 0 0 1-7.655559 88.038936 55.120029 55.120029 0 0 1-88.038936-7.65556z m0 0" fill="#d81e06" p-id="1292"></path><path d="M1005.362034 605.623666L1148.520999 485.048602a55.120029 55.120029 0 0 1 88.038935 7.65556 55.120029 55.120029 0 0 1-7.655559 88.038936l-143.158965 120.575064a55.120029 55.120029 0 0 1-88.038936-7.65556 55.120029 55.120029 0 0 1 7.65556-88.038936z m0 0" fill="#d81e06" p-id="1293"></path><path d="M635.598504 1020.554998a497.611376 497.611376 0 0 1-497.611376-493.400818 62.392811 62.392811 0 0 1 124.785622 0 374.356866 374.356866 0 0 0 374.356866 369.76353h4.210557a374.356866 374.356866 0 0 0 213.207336-70.04837 62.469367 62.469367 0 1 1 72.345038 101.818943 497.611376 497.611376 0 0 1-284.40404 93.015049z m0 0" fill="#d81e06" p-id="1294"></path><path d="M255.499968 333.085744l122.106176 141.627853a55.120029 55.120029 0 0 1-6.507225 88.038936 55.120029 55.120029 0 0 1-88.038936-6.507226L160.953807 414.234676a55.120029 55.120029 0 0 1 6.507226-88.038936 55.120029 55.120029 0 0 1 88.038935 6.507226z m0 0" fill="#d81e06" p-id="1295"></path><path d="M248.609965 421.890235l-141.627853 122.106176a55.120029 55.120029 0 0 1-88.038936-7.272781 55.120029 55.120029 0 0 1 6.507226-88.038936l141.627853-122.106176a55.120029 55.120029 0 0 1 88.038935 6.507226 55.120029 55.120029 0 0 1-6.507225 88.804491z m0 0" fill="#d81e06" p-id="1296"></path></svg>